<?xml version="1.0" standalone="no"?>
<!DOCTYPE svg PUBLIC "-//W3C//DTD SVG 20010904//EN"
 "http://www.w3.org/TR/2001/REC-SVG-20010904/DTD/svg10.dtd">
<svg version="1.0" xmlns="http://www.w3.org/2000/svg"
 width="402.000000pt" height="402.000000pt" viewBox="0 0 402.000000 402.000000"
 preserveAspectRatio="xMidYMid meet">
<metadata>
Created by potrace 1.11, written by Peter Selinger 2001-2013
</metadata>
<g transform="translate(0.000000,402.000000) scale(0.100000,-0.100000)"
fill="#000000" stroke="none">
<path d="M1775 4003 c-216 -38 -420 -138 -658 -324 -74 -58 -344 -321 -472
-459 -112 -121 -313 -376 -390 -493 -107 -165 -196 -393 -230 -587 -3 -19 -10
-53 -15 -75 -12 -50 -5 -242 10 -315 24 -115 89 -283 151 -390 21 -37 121
-184 129 -190 3 -3 13 -15 21 -27 48 -70 267 -298 469 -489 90 -84 372 -310
478 -381 163 -111 377 -202 565 -239 165 -32 198 -36 295 -30 58 3 107 8 111
10 3 2 22 7 41 10 197 33 451 169 678 362 58 49 297 287 408 404 83 89 309
372 382 478 117 173 193 361 247 612 19 92 23 136 20 220 -4 129 -8 154 -40
266 -57 197 -179 404 -365 619 -66 77 -406 408 -480 468 -41 34 -77 64 -80 67
-3 3 -52 43 -110 89 -264 212 -457 308 -756 377 -140 32 -287 38 -409 17z"/>
</g>
</svg>
